<svg xmlns="http://www.w3.org/2000/svg" width="1116" height="216" viewBox="0 0 1116 216"><path fill="#FFF" d="M300.14 2.894v211.37s-43.756-29.502-108.587-29.502c-52.15 0-162.05 8.805-191.553-134.63 0 0 19.83 17.455 60.805 17.455 66.175 0 87.65-64.693 239.334-64.693z"/><g fill="#0098D5"><path d="M128.85 129.514l7.792 5.46 5.46-7.793-7.787-5.46zM117.47 121.54l7.793 5.454 5.472-7.787-7.787-5.473zM150.172 115.682l-7.787-5.467-5.466 7.787 7.79 5.472z"/><path d="M219.855 158.454c-54.02 9.19-100.3 2.025-103.343-15.982l-.862-5.063 1.543 1.096 5.484-7.8-7.805-5.46-1.03 1.478-1.496-8.793 2.64 1.863 5.455-7.805-7.792-5.473-1.814 2.58-1.796-10.656 2.646 1.86 1.495-2.132c1.096.837 2.325 1.61 3.68 2.362l-1.608 2.284 7.8 5.46 2.82-4.026c1 .332 2.03.615 3.085.91l-3.41 4.864 7.786 5.484 5.472-7.817-.844-.592c18.95 3.226 44.853 2.863 72.842-1.886 43.354-7.365 78.526-22.98 89.336-38.174V2.894c-151.685 0-173.158 64.693-239.333 64.693C19.83 67.587 0 50.133 0 50.133c29.5 143.434 139.402 134.63 191.553 134.63 64.83 0 108.586 29.5 108.586 29.5v-85.16c-15.742 12.12-45.35 23.418-80.285 29.35zM199.7 39.736c46.233-7.834 85.818-1.717 88.44 13.7 2.62 15.404-32.733 34.268-78.978 42.12-46.226 7.842-85.83 1.718-88.438-13.692-2.615-15.41 32.727-34.274 78.977-42.128z"/><path d="M153.475 135.166l-7.805-5.473-5.46 7.8 7.792 5.454zM161.55 123.655l-7.798-5.472-5.472 7.78 7.8 5.478zM145.398 146.672L137.6 141.2l-5.46 7.804 7.798 5.46zM128.572 146.473l5.472-7.8-7.81-5.46-5.467 7.794z"/></g><g fill="#58595B"><path d="M331.698 142.896h48.534c6.27.102 13.853.202 20.02 5.764 2.326 2.02 6.37 6.674 6.37 15.268 0 17.088-14.46 19.414-19.21 20.223l26.288 30.133h-13.246L376.29 185.77h-34.48v28.513H331.7v-71.387zm10.01 8.594v25.885h35.29c5.56 0 12.638-.102 16.682-5.46 1.82-2.326 2.427-5.056 2.427-7.584 0-2.728-.708-5.46-2.123-7.582-3.235-5.157-8.392-5.157-13.043-5.258H341.71zM421.285 142.896h65.926v8.797h-55.813v21.335h54.298v8.393h-54.298v24.064h58.342v8.798h-68.454v-71.386zM501.47 142.896h63.396v8.595h-53.488v22.953h51.466v8.494h-51.466v31.345h-9.91v-71.386zM577.203 142.896h65.926v8.797h-55.815v21.335h54.298v8.393h-54.298v24.064h58.342v8.798h-68.453v-71.386zM658.297 142.896h48.534c6.27.102 13.854.202 20.02 5.764 2.327 2.02 6.37 6.674 6.37 15.268 0 17.088-14.458 19.414-19.21 20.223l26.29 30.133h-13.246l-24.166-28.514h-34.48v28.513H658.3v-71.387zm10.01 8.594v25.885h35.29c5.56 0 12.638-.102 16.683-5.46 1.82-2.326 2.426-5.056 2.426-7.584 0-2.728-.708-5.46-2.123-7.582-3.235-5.157-8.393-5.157-13.043-5.258h-39.232zM748.896 142.896h65.925v8.797H759.01v21.335h54.297v8.393h-54.297v24.064h58.342v8.798h-68.453v-71.386zM839.393 142.896l48.13 51.062c3.437 3.64 4.145 4.448 7.583 8.695-.506-5.056-.506-5.967-.607-10.517v-49.24h9.706v71.385h-9.91l-50.555-53.488c-2.628-2.933-3.437-3.943-5.56-6.57.403 4.953.505 6.368.505 12.335v47.725h-9.707v-71.386h10.415zM999.758 194.665c-2.73 4.854-5.562 9.706-12.64 14.156-8.796 5.562-20.12 7.18-28.716 7.18-29.02 0-43.377-16.684-43.377-37.917 0-16.887 8.393-24.672 13.246-28.312 3.034-2.426 11.527-8.998 29.83-8.998 5.155 0 17.593.707 27.198 6.673 7.583 4.753 11.122 10.72 13.043 13.954l-10.92 2.426c-1.617-2.832-3.336-5.865-7.784-8.797-4.348-2.832-12.033-5.36-21.133-5.36-16.986 0-32.76 7.988-32.76 28.11 0 7.077 2.02 14.356 7.38 20.323 4.855 4.954 13.146 9.1 25.986 9.1 11.02.1 18.4-2.73 22.75-6.168 3.842-2.83 6.168-6.47 7.18-8.595l10.718 2.225zM1011.388 142.896h65.924v8.797H1021.5v21.335h54.297v8.393H1021.5v24.064h58.34v8.798h-68.45v-71.386z"/><g><path d="M434.577 3.692v118.486h-29.705V71.663h-43.3v50.516h-29.874V3.69h29.874v42.796h43.3V3.692h29.705zM505.402 125.535c-37.593 0-58.907-28.867-58.907-63.103C446.495 30.377 466.803 0 504.9 0c7.047 0 14.433 1.007 21.648 3.525 36.25 12.586 38.6 52.027 38.6 60.082 0 20.475-9.397 38.936-22.488 49.51-11.58 9.566-25.006 12.418-37.258 12.418zm20.476-92.137c-5.034-5.37-12.756-8.728-20.81-8.728-17.96 0-29.37 15.776-29.37 37.258 0 28.194 15.775 38.6 29.704 38.6 14.098 0 29.202-10.07 30.04-34.907.505-12.418-2.852-25.005-9.564-32.222zM681.622 95.16c-4.363 6.88-8.56 13.593-17.958 20.137-5.034 3.525-16.615 10.406-33.062 10.406-31.384 0-56.726-22.825-56.726-62.936C573.876 27.692 597.71 0 631.273 0c13.594 0 25.678 4.7 34.572 11.748 8.225 6.546 12.084 13.09 15.44 18.965L657.79 42.46c-1.68-3.86-3.69-7.887-8.895-12.25-5.706-4.532-11.412-5.874-16.278-5.874-19.133 0-29.202 17.79-29.202 37.593 0 26.012 13.258 38.935 29.202 38.935 15.44 0 21.648-10.74 25.677-17.62l23.328 11.914zM692.53 3.692h28.197v48.334l44.306-48.334h35.58l-41.958 43.97 45.313 74.517H770.57l-31.72-53.706-18.123 18.965v34.74H692.53V3.69zM811.354 3.692h87.606v22.992h-58.068v21.482H895.1v22.49h-54.208V98.85h63.27v23.328h-92.808V3.692zM907.018 3.692h34.07l25.51 40.614c1.51-3.356 1.845-4.027 4.865-8.895L991.77 3.693h33.733l-44.81 62.433v56.054h-29.202V66.962L907.02 3.693z"/></g></g></svg>